<?xml version="1.0" encoding="UTF-8"?>
<!DOCTYPE svg PUBLIC "-//W3C//DTD SVG 1.1//EN" "http://www.w3.org/Graphics/SVG/1.1/DTD/svg11.dtd">
<!-- Creator: CorelDRAW -->
<svg xmlns="http://www.w3.org/2000/svg" xml:space="preserve" width="7.11111in" height="7.11111in" version="1.1" style="shape-rendering:geometricPrecision; text-rendering:geometricPrecision; image-rendering:optimizeQuality; fill-rule:evenodd; clip-rule:evenodd"
viewBox="0 0 7111 7111"
 xmlns:xlink="http://www.w3.org/1999/xlink">
 <defs>
  <style type="text/css">
   <![CDATA[
    .fil0 {fill:black}
   ]]>
  </style>
 </defs>
 <g id="Layer_x0020_1">
  <metadata id="CorelCorpID_0Corel-Layer"/>
  <g id="_668790752">
   <path class="fil0" d="M4826 6677c-587,0 -1313,-190 -2062,-938 -1347,-1353 -886,-2764 -737,-3231 6,-29 18,-52 23,-75 -86,-98 -132,-230 -132,-368 0,-156 57,-305 167,-415 109,-109 253,-167 409,-167 138,0 270,46 374,138 23,-5 52,-17 81,-23 466,-149 1883,-604 3225,743 1249,1250 944,2442 794,3012 -29,121 -69,265 -57,305 218,225 213,588 -6,812 -110,110 -259,173 -415,173 -149,0 -293,-58 -397,-167 -40,-12 -190,29 -311,58 -230,57 -559,143 -956,143zm-2332 -4992c-98,0 -196,40 -265,109 -69,69 -110,167 -110,271 0,98 41,196 110,265 52,57 34,109 -12,242 -144,437 -570,1762 691,3029 1169,1169 2246,886 2822,737 254,-64 403,-104 495,-12 69,69 162,110 265,110 104,0 196,-41 271,-110 144,-144 144,-386 0,-535 -92,-92 -52,-242 11,-496 150,-575 427,-1652 -742,-2821 0,0 0,0 0,0 -1256,-1261 -2586,-835 -3024,-691 -138,46 -196,63 -247,5 -69,-63 -162,-103 -265,-103zm4411 3967c0,0 0,0 0,0 0,0 0,0 0,0zm-4008 -4002c6,0 6,0 0,0 6,0 6,0 0,0z"/>
   <path class="fil0" d="M2154 1823c-23,0 -40,-6 -58,-17 -23,-18 -535,-398 -575,-847 -18,-184 46,-351 184,-495 40,-40 103,-40 144,0 40,40 40,104 0,144 -98,103 -144,213 -133,340 29,357 490,696 496,702 46,35 57,98 23,138 -18,23 -46,35 -81,35z"/>
   <path class="fil0" d="M288 4852c-11,0 -17,0 -29,-6 -28,-11 -51,-29 -63,-57 -236,-605 -259,-1250 -69,-1866 190,-616 570,-1135 1106,-1503 23,-17 57,-23 86,-12 29,12 52,29 63,58 231,593 254,1255 64,1860 -190,616 -576,1134 -1106,1497 -12,23 -35,29 -52,29zm950 -3185c-443,334 -760,784 -921,1319 -167,530 -161,1083 17,1607 438,-334 755,-783 922,-1319 161,-518 155,-1088 -18,-1607z"/>
   <path class="fil0" d="M3208 5405c-23,0 -52,-12 -69,-29 -668,-668 -939,-1480 -783,-2355 11,-58 63,-92 115,-81 57,12 92,63 80,115 -144,818 98,1549 726,2177 40,40 40,104 0,144 -17,17 -40,29 -69,29z"/>
   <path class="fil0" d="M5690 4132c-23,0 -52,-11 -69,-29l-52 -51c-40,-41 -40,-104 0,-144 40,-41 104,-41 144,0l52 51c40,41 40,104 0,144 -23,18 -46,29 -75,29z"/>
   <path class="fil0" d="M5914 4754c-23,0 -51,-11 -69,-29l-46 -46c-40,-40 -40,-103 0,-144 41,-40 104,-40 144,0l46 46c41,41 41,104 0,144 -23,18 -52,29 -75,29z"/>
   <path class="fil0" d="M6485 4944c-24,0 -47,-11 -70,-29l-51 -46c-41,-40 -46,-103 -6,-144 40,-40 103,-46 144,-5l52 46c40,40 46,103 5,144 -23,23 -46,34 -74,34z"/>
   <path class="fil0" d="M6283 4351c-23,0 -46,-12 -69,-29l-52 -46c-40,-40 -46,-104 -6,-144 41,-40 104,-46 144,-6l52 46c40,41 46,104 6,144 -17,23 -46,35 -75,35z"/>
   <path class="fil0" d="M6087 3764c-23,0 -46,-12 -69,-29l-52 -46c-40,-41 -46,-104 -6,-144 41,-41 104,-46 144,-6l52 46c41,40 46,104 6,144 -23,23 -46,35 -75,35z"/>
   <path class="fil0" d="M5690 3453c-29,0 -52,-12 -75,-35l-46 -52c-40,-40 -35,-103 6,-144 40,-40 103,-34 144,6l46 52c40,40 34,104 -6,144 -17,17 -40,29 -69,29z"/>
   <path class="fil0" d="M288 4852c-11,0 -17,0 -29,-6 -51,-17 -80,-75 -69,-126l1002 -3237c56,-167 251,-379 403,-466 46,-29 110,-23 139,23 34,46 23,109 -23,138 -121,86 -300,248 -317,351 -4,18 -15,40 -20,59l-988 3195c-17,40 -58,69 -98,69z"/>
   <path class="fil0" d="M1474 2572c-23,0 -51,-12 -69,-29l-334 -317 -478 98c-51,11 -109,-23 -121,-81 -11,-52 23,-109 81,-121l530 -109c34,-6 63,6 86,23l375 351c40,41 40,104 5,144 -17,29 -46,41 -75,41z"/>
   <path class="fil0" d="M1434 3050c-23,0 -52,-12 -69,-29l-409 -392 -604 133c-52,11 -110,-23 -121,-81 -12,-52 23,-109 80,-121l657 -138c34,-6 63,0 92,23l449 426c40,40 40,104 6,144 -29,29 -52,35 -81,35z"/>
   <path class="fil0" d="M1325 3487c-23,0 -52,-11 -69,-29l-438 -414 -610 132c-52,12 -110,-23 -121,-80 -12,-52 23,-110 80,-121l657 -133c34,-6 63,0 92,23l478 449c40,41 40,104 6,144 -23,18 -52,29 -75,29z"/>
   <path class="fil0" d="M1163 3867c-23,0 -51,-11 -69,-29l-403 -380 -553 116c-51,11 -109,-23 -120,-81 -12,-52 23,-109 80,-121l605 -127c34,-5 63,0 92,23l438 415c40,40 40,104 5,144 -23,29 -51,40 -75,40z"/>
   <path class="fil0" d="M956 4195c-23,0 -52,-11 -69,-28l-322 -306 -444 93c-52,11 -109,-23 -121,-81 -11,-52 23,-109 81,-121l495 -104c35,-5 63,0 92,23l363 346c40,40 40,104 6,144 -23,23 -52,34 -81,34z"/>
   <path class="fil0" d="M703 4495c-23,0 -52,-12 -69,-29l-202 -184 -271 57c-51,12 -109,-23 -120,-80 -12,-58 23,-110 80,-121l323 -69c34,-6 63,0 86,23l242 224c40,41 40,104 6,144 -18,23 -46,35 -75,35z"/>
  </g>
 </g>
</svg>
